<svg xmlns="http://www.w3.org/2000/svg" viewBox="0 12.899999618530273 359.8999938964844 32.75" data-asc="0.898" width="359.8999938964844" height="32.75"><defs/><g fill="#77bb41"><g transform="translate(0, 0)"><path d="M30.20 45.65Q27.25 45.65 24.43 45.32Q21.60 45 18.95 44.35L21.75 36.10Q23.65 36.60 25.85 36.92Q28.05 37.25 30.00 37.25Q31.60 37.25 32.80 37.17Q34 37.10 35.10 36.95L35.50 34.45L31.35 34.05Q26.45 33.55 24.55 31.82Q22.65 30.10 22.65 27.10Q22.65 25.75 22.95 24.10Q23.75 19.85 25.28 17.40Q26.80 14.95 29.65 13.92Q32.50 12.90 37.20 12.90Q39.95 12.90 42.60 13.20Q45.25 13.50 47.70 14.15L45.10 22.15Q43.15 21.80 41.40 21.60Q39.65 21.40 37.50 21.40Q36.35 21.40 35.55 21.45Q34.75 21.50 33.60 21.65L33.20 24.10L36.55 24.45Q40.15 24.80 42.20 25.82Q44.25 26.85 45.10 28.37Q45.95 29.90 45.95 31.90Q45.95 32.50 45.88 33.13Q45.80 33.75 45.70 34.45Q45 38.50 43.45 40.80Q41.90 43.10 39.80 44.13Q37.70 45.15 35.23 45.40Q32.75 45.65 30.20 45.65M24.45 15.70L5.15 13.65L26.65 13.65Q26 14.05 25.48 14.57Q24.95 15.10 24.45 15.70M22.15 20.65L1.40 18.45L22.90 18.45L22.15 20.65M21.20 25.50L0 23.25L21.55 23.25Q21.50 23.40 21.48 23.55Q21.45 23.70 21.45 23.85Q21.40 24.20 21.33 24.60Q21.25 25.00 21.20 25.50M21.60 30.30L0.45 28.05L21.20 28.05Q21.25 28.70 21.33 29.22Q21.40 29.75 21.60 30.30M28.20 35.10L1.75 32.85L23.30 32.85Q24.95 34.45 28.20 35.10M18.85 39.85L0.90 37.65L19.60 37.65L18.85 39.85M17.25 44.70L0.05 42.50L18 42.50L17.25 44.70ZM58.40 44.90L63 18.45L75.70 18.45Q78.45 18.45 80.03 19.35Q81.60 20.25 82.28 21.77Q82.95 23.30 82.95 25.30Q82.95 26.45 82.70 28.15Q82.45 29.85 81.83 31.67Q81.20 33.50 80.08 35.10Q78.95 36.70 77.15 37.70Q75.35 38.70 72.75 38.70L67.90 38.70L66.80 44.90L58.40 44.90M61 20.70L39.80 18.45L61.35 18.45L61 20.70M60.15 25.50L38.95 23.25L60.55 23.25L60.15 25.50M69.10 31.95L70.65 31.95Q71.65 31.95 72.35 31.70Q73.05 31.45 73.25 30.50L73.85 27.10Q73.85 27.00 73.88 26.92Q73.90 26.85 73.90 26.80Q73.90 26.10 73.25 25.92Q72.60 25.75 71.75 25.75L70.15 25.75L69.10 31.95M59.30 30.30L38.10 28.05L59.70 28.05L59.30 30.30M58.45 35.10L37.25 32.85L58.85 32.85L58.45 35.10M57.60 39.90L36.40 37.65L58 37.65L57.60 39.90M56.75 44.75L35.55 42.50L57.15 42.50L56.75 44.75ZM93.15 44.90L97.75 18.45L110.45 18.45Q113.25 18.45 114.83 19.30Q116.40 20.15 117.08 21.65Q117.75 23.15 117.75 25.05Q117.75 26.55 117.33 28.70Q116.90 30.85 115.78 32.88Q114.65 34.90 112.50 36.10L115.35 44.90L106 44.90L104.10 37.20L102.90 37.20L101.55 44.90L93.15 44.90M95.75 20.70L74.55 18.45L96.10 18.45L95.75 20.70M94.90 25.50L73.70 23.25L95.30 23.25L94.90 25.50M104.10 30.35L105.70 30.35Q106.70 30.35 107.43 30.07Q108.15 29.80 108.30 28.85L108.60 27.10Q108.60 27.00 108.63 26.92Q108.65 26.85 108.65 26.80Q108.65 26.10 107.93 25.92Q107.20 25.75 106 25.75L104.90 25.75L104.10 30.35M94.05 30.30L72.85 28.05L94.45 28.05L94.05 30.30M93.20 35.10L72 32.85L93.60 32.85L93.20 35.10M92.35 39.90L71.15 37.65L92.75 37.65L92.35 39.90M91.50 44.75L70.30 42.50L91.90 42.50L91.50 44.75ZM129.20 44.90L133.80 18.45L142.60 18.45L137.95 44.90L129.20 44.90M131.80 20.70L110.60 18.45L132.15 18.45L131.80 20.70M130.95 25.50L109.75 23.25L131.35 23.25L130.95 25.50M130.10 30.30L108.90 28.05L130.50 28.05L130.10 30.30M129.25 35.10L108.05 32.85L129.65 32.85L129.25 35.10M128.40 39.90L107.20 37.65L128.80 37.65L128.40 39.90M127.55 44.75L106.35 42.50L127.95 42.50L127.55 44.75ZM153.65 44.90L158.25 18.45L165.05 18.45L170.25 28.30L170.55 28.30L172.25 18.45L180.60 18.45L175.95 44.90L169.15 44.90L164 35L163.80 35L162.05 44.90L153.65 44.90M156.25 20.70L135.05 18.45L156.60 18.45L156.25 20.70M155.40 25.50L134.20 23.25L155.80 23.25L155.40 25.50M154.55 30.30L133.35 28.05L154.95 28.05L154.55 30.30M153.70 35.10L132.50 32.85L154.10 32.85L153.70 35.10M152.85 39.90L131.65 37.65L153.25 37.65L152.85 39.90M152 44.75L130.80 42.50L152.40 42.50L152 44.75ZM201.80 45.50Q196.35 45.50 194.15 43.38Q191.95 41.25 191.95 37Q191.95 35.85 192.10 34.52Q192.25 33.20 192.50 31.70Q193.30 27.10 194.85 24.05Q196.40 21.00 199.40 19.47Q202.40 17.95 207.55 17.95Q208.65 17.95 210.17 18.05Q211.70 18.15 213.12 18.40Q214.55 18.65 215.35 19.05L212.80 26.00Q211.10 25.60 209.47 25.45Q207.85 25.30 206.85 25.30Q204.70 25.30 203.60 25.62Q202.50 25.95 202.30 27.00L200.20 38.50L202.50 38.50Q203.55 38.50 204.30 38.25Q205.05 38 205.25 37L205.60 35.05L203.55 35.05L204.55 29.35L214.65 29.35L212.15 43.50Q209.40 44.60 206.65 45.05Q203.90 45.50 201.80 45.50M195.75 20.10L180.40 18.45L197.80 18.45Q196.60 19.15 195.75 20.10M192.60 25.25L173.70 23.25L193.45 23.25Q193.25 23.75 193.02 24.22Q192.80 24.70 192.60 25.25M191.25 30.15L171.70 28.05L191.70 28.05L191.25 30.15M190.50 34.95L170.80 32.85L190.75 32.85Q190.70 33.40 190.62 33.92Q190.55 34.45 190.50 34.95M190.65 39.75L171.00 37.65L190.45 37.65Q190.45 38.20 190.52 38.72Q190.60 39.25 190.65 39.75M192.80 44.35L175.35 42.50L191.50 42.50Q191.75 43 192.07 43.48Q192.40 43.95 192.80 44.35ZM226.90 44.90L232.40 13.65L241.35 13.65L246.45 24.75Q246.60 25.10 246.60 25.75Q246.60 26.10 246.57 26.47Q246.55 26.85 246.50 27.15L246.90 27.15L249.30 13.65L258.80 13.65L253.30 44.90L244.35 44.90L239.25 33.80Q239.20 33.60 239.13 33.32Q239.05 33.05 239.05 32.70Q239.05 32.40 239.07 32.05Q239.10 31.70 239.15 31.40L238.75 31.40L236.40 44.90L226.90 44.90M230.45 15.90L209.30 13.65L230.85 13.65L230.45 15.90M229.65 20.70L208.45 18.45L230 18.45L229.65 20.70M228.80 25.50L207.60 23.25L229.20 23.25L228.80 25.50M227.95 30.30L206.75 28.05L228.35 28.05L227.95 30.30M227.10 35.10L205.90 32.85L227.50 32.85L227.10 35.10M226.25 39.90L205.05 37.65L226.65 37.65L226.25 39.90M225.40 44.75L204.20 42.50L225.80 42.50L225.40 44.75ZM269.45 44.90L274.05 18.45L291.65 18.45L289.30 25.95L281.15 25.95L280.55 29.35L288.05 29.35L287.20 34.15L279.75 34.15L279.15 37.55L288.40 37.55L287.10 44.90L269.45 44.90M272.05 20.70L250.85 18.45L272.40 18.45L272.05 20.70M271.20 25.50L250 23.25L271.60 23.25L271.20 25.50M270.35 30.30L249.15 28.05L270.75 28.05L270.35 30.30M269.50 35.10L248.30 32.85L269.90 32.85L269.50 35.10M268.65 39.90L247.45 37.65L269.05 37.65L268.65 39.90M267.80 44.75L246.60 42.50L268.20 42.50L267.80 44.75ZM299.25 44.90L308 31.55L303.90 18.45L313.95 18.45L315.25 24.35L315.70 24.35L319.25 18.45L328.85 18.45L320.10 31.55L324.25 44.90L314.45 44.90L312.90 38.70L312.45 38.70L308.75 44.90L299.25 44.90M303.10 20.70L281.90 18.45L302.40 18.45L303.10 20.70M304.60 25.50L283.45 23.25L303.90 23.25L304.60 25.50M306.05 30.30L284.90 28.05L305.35 28.05L306.05 30.30M304 35L283.80 32.85L305.40 32.85L304 35M300.85 39.80L280.65 37.65L302.25 37.65L300.85 39.80M297.65 44.65L277.45 42.50L299.05 42.50L297.65 44.65ZM341.05 44.90L344.35 25.95L338.80 25.95L340.15 18.45L359.90 18.45L358.55 25.95L353.15 25.95L349.85 44.90L341.05 44.90M338.15 20.70L316.95 18.45L338.50 18.45L338.15 20.70M337.30 25.50L316.10 23.25L337.70 23.25L337.30 25.50M342.10 30.30L320.90 28.05L342.50 28.05L342.10 30.30M341.25 35.10L320.05 32.85L341.65 32.85L341.25 35.10M340.40 39.90L319.20 37.65L340.80 37.65L340.40 39.90M339.55 44.75L318.35 42.50L339.95 42.50L339.55 44.75Z"/></g></g></svg>