<svg xmlns="http://www.w3.org/2000/svg" viewBox="0 12 193.39999389648438 36" data-asc="0.8" width="193.39999389648438" height="36"><defs/><g fill="#669c35"><g transform="translate(0, 0)"><path d="M14.40 34Q14.40 35.15 14.20 36L12.20 36Q12.40 36.80 12.40 38Q12.40 39.15 12.20 40L1.20 40Q1 39.15 1 38Q1 36.80 1.20 36L10.20 36Q10 35.15 10 34Q10 32.80 10.20 32L2.20 32Q2.00 31.15 2.00 30Q2.00 28.80 2.20 28L0.20 28Q0 27.15 0 26Q0 24.80 0.20 24L2.20 24Q2.00 23.15 2.00 22Q2.00 20.80 2.20 20L13.20 20Q13.40 20.80 13.40 22Q13.40 23.15 13.20 24L4.20 24Q4.40 24.80 4.40 26Q4.40 27.15 4.20 28L12.20 28Q12.40 28.80 12.40 30Q12.40 31.15 12.20 32L14.20 32Q14.40 32.80 14.40 34ZM35.40 30Q35.40 31.15 35.20 32L33.20 32Q33.40 32.80 33.40 34Q33.40 35.15 33.20 36L31.20 36Q31.40 36.80 31.40 38Q31.40 39.15 31.20 40L23.20 40Q23.40 40.80 23.40 42Q23.40 43.15 23.20 44Q23.40 44.80 23.40 46Q23.40 47.15 23.20 48L19.20 48Q19 47.15 19 46Q19 44.80 19.20 44Q19 43.15 19 42Q19 40.80 19.20 40Q19 39.15 19 38Q19 36.80 19.20 36Q19 35.15 19 34Q19 32.80 19.20 32Q19 31.15 19 30Q19 28.80 19.20 28Q19 27.15 19 26Q19 24.80 19.20 24Q19 23.15 19 22Q19 20.80 19.20 20L23.20 20Q23.40 20.80 23.40 22Q23.40 23.15 23.20 24L25.20 24Q25.40 24.80 25.40 26Q25.40 27.15 25.20 28L23.20 28Q23.40 28.80 23.40 30Q23.40 31.15 23.20 32Q23.40 32.80 23.40 34Q23.40 35.15 23.20 36L29.20 36Q29 35.15 29 34Q29 32.80 29.20 32L31.20 32Q31 31.15 31 30Q31 28.80 31.20 28L29.20 28Q29 27.15 29 26Q29 24.80 29.20 24L25.20 24Q25 23.15 25 22Q25 20.80 25.20 20L31.20 20Q31.40 20.80 31.40 22Q31.40 23.15 31.20 24L33.20 24Q33.40 24.80 33.40 26Q33.40 27.15 33.20 28L35.20 28Q35.40 28.80 35.40 30ZM55.20 24Q55.40 24.80 55.40 26Q55.40 27.15 55.20 28L51.20 28Q51 27.15 51 26Q51 24.80 51.20 24L47.70 24Q47.90 24.80 47.90 26Q47.90 27.15 47.70 28L46.20 28Q46.40 28.80 46.40 30Q46.40 31.15 46.20 32Q46.40 32.80 46.40 34Q46.40 35.15 46.20 36L49.20 36Q49.40 36.80 49.40 38Q49.40 39.15 49.20 40L39.20 40Q39 39.15 39 38Q39 36.80 39.20 36L42.20 36Q42 35.15 42 34Q42 32.80 42.20 32Q42 31.15 42 30Q42 28.80 42.20 28Q42 27.15 42 26Q42 24.80 42.20 24L39.20 24Q39 23.15 39 22Q39 20.80 39.20 20L44.20 20Q44.40 20.80 44.40 22Q44.40 23.15 44.20 24L46.20 24Q46 23.15 46 22Q46 20.80 46.20 20L53.70 20Q53.90 20.80 53.90 22Q53.90 23.15 53.70 24L55.20 24ZM65.20 16Q65 15.15 65 14Q65 12.80 65.20 12L69.20 12Q69.40 12.80 69.40 14Q69.40 15.15 69.20 16L65.20 16M73.20 36Q73.40 36.80 73.40 38Q73.40 39.15 73.20 40L61.20 40Q61 39.15 61 38Q61 36.80 61.20 36L65.20 36Q65 35.15 65 34Q65 32.80 65.20 32Q65 31.15 65 30Q65 28.80 65.20 28Q65 27.15 65 26Q65 24.80 65.20 24L62.20 24Q62 23.15 62 22Q62 20.80 62.20 20L69.20 20Q69.40 20.80 69.40 22Q69.40 23.15 69.20 24Q69.40 24.80 69.40 26Q69.40 27.15 69.20 28Q69.40 28.80 69.40 30Q69.40 31.15 69.20 32Q69.40 32.80 69.40 34Q69.40 35.15 69.20 36L73.20 36ZM82.90 22Q82.90 23.15 82.70 24L84.70 24Q84.90 24.80 84.90 26Q84.90 27.15 84.70 28L83.20 28Q83.40 28.80 83.40 30Q83.40 31.15 83.20 32Q83.40 32.80 83.40 34Q83.40 35.15 83.20 36Q83.40 36.80 83.40 38Q83.40 39.15 83.20 40L79.20 40Q79 39.15 79 38Q79 36.80 79.20 36Q79 35.15 79 34Q79 32.80 79.20 32Q79 31.15 79 30Q79 28.80 79.20 28Q79 27.15 79 26Q79 24.80 79.20 24Q79 23.15 79 22Q79 20.80 79.20 20L82.70 20Q82.90 20.80 82.90 22M95.20 28Q95.40 28.80 95.40 30Q95.40 31.15 95.20 32Q95.40 32.80 95.40 34Q95.40 35.15 95.20 36Q95.40 36.80 95.40 38Q95.40 39.15 95.20 40L91.20 40Q91 39.15 91 38Q91 36.80 91.20 36Q91 35.15 91 34Q91 32.80 91.20 32Q91 31.15 91 30Q91 28.80 91.20 28Q91 27.15 91 26Q91 24.80 91.20 24L84.70 24Q84.50 23.15 84.50 22Q84.50 20.80 84.70 20L92.70 20Q92.90 20.80 92.90 22Q92.90 23.15 92.70 24L95.20 24Q95.40 24.80 95.40 26Q95.40 27.15 95.20 28ZM115.20 24Q115.40 24.80 115.40 26Q115.40 27.15 115.20 28Q115.40 28.80 115.40 30Q115.40 31.15 115.20 32Q115.40 32.80 115.40 34Q115.40 35.15 115.20 36Q115.40 36.80 115.40 38Q115.40 39.15 115.20 40L113.20 40Q113.40 40.80 113.40 42Q113.40 43.15 113.20 44L111.20 44Q111.40 44.80 111.40 46Q111.40 47.15 111.20 48L103.20 48Q103 47.15 103 46Q103 44.80 103.20 44L109.20 44Q109 43.15 109 42Q109 40.80 109.20 40L111.20 40Q111 39.15 111 38Q111 36.80 111.20 36L109.20 36Q109 35.15 109 34Q109 32.80 109.20 32L111.20 32Q111 31.15 111 30Q111 28.80 111.20 28Q111 27.15 111 26Q111 24.80 111.20 24L104.70 24Q104.90 24.80 104.90 26Q104.90 27.15 104.70 28L103.20 28Q103.40 28.80 103.40 30Q103.40 31.15 103.20 32L104.70 32Q104.90 32.80 104.90 34Q104.90 35.15 104.70 36L109.20 36Q109.40 36.80 109.40 38Q109.40 39.15 109.20 40L103.20 40Q103 39.15 103 38Q103 36.80 103.20 36L100.70 36Q100.50 35.15 100.50 34Q100.50 32.80 100.70 32L99.20 32Q99 31.15 99 30Q99 28.80 99.20 28L100.70 28Q100.50 27.15 100.50 26Q100.50 24.80 100.70 24L103.20 24Q103 23.15 103 22Q103 20.80 103.20 20L115.20 20Q115.40 20.80 115.40 22Q115.40 23.15 115.20 24ZM122.90 22Q122.90 23.15 122.70 24L124.70 24Q124.90 24.80 124.90 26Q124.90 27.15 124.70 28L123.20 28Q123.40 28.80 123.40 30Q123.40 31.15 123.20 32Q123.40 32.80 123.40 34Q123.40 35.15 123.20 36Q123.40 36.80 123.40 38Q123.40 39.15 123.20 40L119.20 40Q119 39.15 119 38Q119 36.80 119.20 36Q119 35.15 119 34Q119 32.80 119.20 32Q119 31.15 119 30Q119 28.80 119.20 28Q119 27.15 119 26Q119 24.80 119.20 24Q119 23.15 119 22Q119 20.80 119.20 20L122.70 20Q122.90 20.80 122.90 22M135.20 28Q135.40 28.80 135.40 30Q135.40 31.15 135.20 32Q135.40 32.80 135.40 34Q135.40 35.15 135.20 36Q135.40 36.80 135.40 38Q135.40 39.15 135.20 40L131.20 40Q131 39.15 131 38Q131 36.80 131.20 36Q131 35.15 131 34Q131 32.80 131.20 32Q131 31.15 131 30Q131 28.80 131.20 28Q131 27.15 131 26Q131 24.80 131.20 24L124.70 24Q124.50 23.15 124.50 22Q124.50 20.80 124.70 20L132.70 20Q132.90 20.80 132.90 22Q132.90 23.15 132.70 24L135.20 24Q135.40 24.80 135.40 26Q135.40 27.15 135.20 28ZM155.40 26Q155.40 27.15 155.20 28Q155.40 28.80 155.40 30Q155.40 31.15 155.20 32L144.70 32Q144.90 32.80 144.90 34Q144.90 35.15 144.70 36L153.20 36Q153.40 36.80 153.40 38Q153.40 39.15 153.20 40L143.20 40Q143 39.15 143 38Q143 36.80 143.20 36L140.70 36Q140.50 35.15 140.50 34Q140.50 32.80 140.70 32L139.20 32Q139 31.15 139 30Q139 28.80 139.20 28L140.70 28Q140.50 27.15 140.50 26Q140.50 24.80 140.70 24L143.20 24Q143 23.15 143 22Q143 20.80 143.20 20L153.20 20Q153.40 20.80 153.40 22Q153.40 23.15 153.20 24L155.20 24Q155.40 24.80 155.40 26M151.20 28Q151 27.15 151 26Q151 24.80 151.20 24L144.70 24Q144.90 24.80 144.90 26Q144.90 27.15 144.70 28L151.20 28ZM174.20 36Q174.40 36.80 174.40 38Q174.40 39.15 174.20 40L170.20 40Q170 39.15 170 38Q170 36.80 170.20 36L168.70 36Q168.50 35.15 168.50 34Q168.50 32.80 168.70 32L166.20 32Q166.40 32.80 166.40 34Q166.40 35.15 166.20 36L164.20 36Q164.40 36.80 164.40 38Q164.40 39.15 164.20 40L160.20 40Q160 39.15 160 38Q160 36.80 160.20 36L162.20 36Q162 35.15 162 34Q162 32.80 162.20 32L164.20 32Q164 31.15 164 30Q164 28.80 164.20 28L162.20 28Q162 27.15 162 26Q162 24.80 162.20 24L160.20 24Q160 23.15 160 22Q160 20.80 160.20 20L164.20 20Q164.40 20.80 164.40 22Q164.40 23.15 164.20 24L166.20 24Q166.40 24.80 166.40 26Q166.40 27.15 166.20 28L168.70 28Q168.50 27.15 168.50 26Q168.50 24.80 168.70 24L170.20 24Q170 23.15 170 22Q170 20.80 170.20 20L174.20 20Q174.40 20.80 174.40 22Q174.40 23.15 174.20 24L172.70 24Q172.90 24.80 172.90 26Q172.90 27.15 172.70 28L170.20 28Q170.40 28.80 170.40 30Q170.40 31.15 170.20 32L172.70 32Q172.90 32.80 172.90 34Q172.90 35.15 172.70 36L174.20 36ZM193.20 36Q193.40 36.80 193.40 38Q193.40 39.15 193.20 40L185.20 40Q185 39.15 185 38Q185 36.80 185.20 36L183.20 36Q183 35.15 183 34Q183 32.80 183.20 32Q183 31.15 183 30Q183 28.80 183.20 28Q183 27.15 183 26Q183 24.80 183.20 24L179.20 24Q179 23.15 179 22Q179 20.80 179.20 20L183.20 20Q183 19.15 183 18Q183 16.80 183.20 16Q183 15.15 183 14Q183 12.80 183.20 12L187.20 12Q187.40 12.80 187.40 14Q187.40 15.15 187.20 16Q187.40 16.80 187.40 18Q187.40 19.15 187.20 20L193.20 20Q193.40 20.80 193.40 22Q193.40 23.15 193.20 24L187.20 24Q187.40 24.80 187.40 26Q187.40 27.15 187.20 28Q187.40 28.80 187.40 30Q187.40 31.15 187.20 32Q187.40 32.80 187.40 34Q187.40 35.15 187.20 36L193.20 36Z"/></g></g></svg>